HIERARCHY
ROOT SimulationBone
{
	OFFSET 0.000000 0.000000 0.000000
	CHANNELS 6 Xposition Yposition Zposition Zrotation Yrotation Xrotation 
	JOINT Hips
	{
		OFFSET 0.000000 0.000000 0.000000
		CHANNELS 6 Xposition Yposition Zposition Zrotation Yrotation Xrotation 
		JOINT RightUpLeg
		{
			OFFSET 0.103459 1.857839 10.548500
			CHANNELS 3 Zrotation Yrotation Xrotation
			JOINT RightLeg
			{
				OFFSET 43.500004 -0.000053 -0.000011
				CHANNELS 3 Zrotation Yrotation Xrotation
				JOINT RightFoot
				{
					OFFSET 42.372192 0.000015 -0.000008
					CHANNELS 3 Zrotation Yrotation Xrotation
					JOINT RightToe
					{
						OFFSET 17.300007 0.000002 0.000013
						CHANNELS 3 Zrotation Yrotation Xrotation
						End Site
						{
							OFFSET 0.000000 0.000000 0.000000
						}
					}
				}
			}
		}
		JOINT LeftUpLeg
		{
			OFFSET 0.103460 1.857826 -10.548500
			CHANNELS 3 Zrotation Yrotation Xrotation
			JOINT LeftLeg
			{
				OFFSET 43.500046 -0.000019 0.000011
				CHANNELS 3 Zrotation Yrotation Xrotation
				JOINT LeftFoot
				{
					OFFSET 42.372261 0.000004 0.000012
					CHANNELS 3 Zrotation Yrotation Xrotation
					JOINT LeftToe
					{
						OFFSET 17.299995 -0.000004 0.000006
						CHANNELS 3 Zrotation Yrotation Xrotation
						End Site
						{
							OFFSET 0.000000 0.000000 0.000000
						}
					}
				}
			}
		}
		JOINT Spine
		{
			OFFSET 6.901963 -2.603745 -0.000005
			CHANNELS 3 Zrotation Yrotation Xrotation
			JOINT Spine1
			{
				OFFSET 12.588102 0.000012 0.000012
				CHANNELS 3 Zrotation Yrotation Xrotation
				JOINT Spine2
				{
					OFFSET 12.343202 0.000010 -0.000009
					CHANNELS 3 Zrotation Yrotation Xrotation
					JOINT Neck
					{
						OFFSET 25.832901 -0.000008 0.000006
						CHANNELS 3 Zrotation Yrotation Xrotation
						JOINT Head
						{
							OFFSET 11.766603 0.000007 -0.000001
							CHANNELS 3 Zrotation Yrotation Xrotation
							End Site
							{
								OFFSET 0.000000 0.000000 0.000000
							}
						}
					}
					JOINT RightShoulder
					{
						OFFSET 19.745903 -1.480391 6.000108
						CHANNELS 3 Zrotation Yrotation Xrotation
						JOINT RightArm
						{
							OFFSET 11.284125 -0.000031 -0.000021
							CHANNELS 3 Zrotation Yrotation Xrotation
							JOINT RightForeArm
							{
								OFFSET 33.000046 0.000024 0.000034
								CHANNELS 3 Zrotation Yrotation Xrotation
								JOINT RightHand
								{
									OFFSET 25.200014 0.000020 0.000007
									CHANNELS 3 Zrotation Yrotation Xrotation
									End Site
									{
										OFFSET 0.000000 0.000000 0.000000
									}
								}
							}
						}
					}
					JOINT LeftShoulder
					{
						OFFSET 19.746098 -1.480371 -6.000075
						CHANNELS 3 Zrotation Yrotation Xrotation
						JOINT LeftArm
						{
							OFFSET 11.284128 -0.000021 -0.000009
							CHANNELS 3 Zrotation Yrotation Xrotation
							JOINT LeftForeArm
							{
								OFFSET 33.000095 0.000034 0.000006
								CHANNELS 3 Zrotation Yrotation Xrotation
								JOINT LeftHand
								{
									OFFSET 25.199781 0.000147 0.000427
									CHANNELS 3 Zrotation Yrotation Xrotation
									End Site
									{
										OFFSET 0.000000 0.000000 0.000000
									}
								}
							}
						}
					}
				}
			}
		}
	}
}
MOTION
Frames: 10
Frame Time: 0.033333
86.166545 0.000000 540.026023 0.000000 -88.241283 0.000000 -4.758851 85.511673 -2.577551 83.379089 -5.005739 174.389173 137.543249 3.183811 -179.514802 -45.466554 5.533484 -2.551949 83.733809 -0.175814 -8.790588 21.454562 0.003107 0.000017 159.869429 -0.407196 177.703081 -52.517386 1.115980 1.590867 101.165791 -1.517446 -7.178876 21.454555 -0.003092 0.000000 6.891567 -0.388119 -0.535756 3.773956 -0.758718 -1.083749 3.455884 -0.765400 -1.079138 -17.729561 7.684208 -4.030443 -27.262635 1.634527 -1.862100 131.318023 -76.927164 48.061053 -52.171966 30.725394 -36.559598 -94.049301 -1.385446 2.624913 -4.920044 -9.672178 6.881698 -176.647939 82.958672 4.962038 -20.756281 -48.843175 -0.377445 -89.729916 7.078499 -2.788404 -3.322961 11.976845 -17.654629 
86.287593 0.000000 544.432621 180.000000 -87.699233 180.000000 -4.351936 85.837753 -2.149150 83.811896 -4.419122 175.908786 141.014788 1.853903 -177.680336 -29.085722 3.325754 0.200852 81.325287 -3.075488 -12.346919 21.454557 0.003102 0.000016 166.022146 -0.149398 177.340985 -47.960680 0.755469 0.622179 101.674401 -0.869441 -7.530639 21.454551 -0.003095 0.000000 6.782969 -0.412021 -0.154399 3.554318 -0.819126 -0.321211 3.236187 -0.821190 -0.316266 -16.849821 6.534339 -3.856206 -26.699962 2.329010 -2.503582 138.746987 -76.935968 40.545062 -46.103032 33.626521 -33.060793 -95.333861 -1.186739 2.668591 -4.661832 -9.122341 4.785505 -174.869973 82.751048 6.758077 -18.002511 -49.219549 -9.076861 -84.325789 10.828790 -2.813023 -1.119976 9.722208 -14.454526 
86.314725 0.000000 548.615314 180.000000 -83.767630 180.000000 -3.790917 85.707207 -1.824966 84.444321 -3.761279 176.895856 144.700590 0.341701 -173.130938 -16.064137 1.357241 0.429201 78.083132 -4.659152 -16.419271 21.454558 0.003111 0.000017 171.642340 0.427992 176.667556 -44.331968 0.899099 -0.473476 101.756404 -0.180790 -8.004574 21.454551 -0.003085 0.000002 6.667453 -0.385115 0.203271 3.320795 -0.775762 0.395580 3.002668 -0.773503 0.400252 -14.355468 6.327889 -3.679700 -27.002697 2.698289 -2.741876 145.586070 -77.709357 33.560056 -40.158719 37.167396 -28.850985 -94.627422 -1.338051 2.647505 -3.667054 -8.558998 2.521824 -175.505030 83.501883 6.123022 -16.371111 -50.573507 -17.173911 -76.897726 14.600953 -2.754913 0.897851 8.450886 -11.144988 
86.247260 0.000000 552.581233 180.000000 -79.961342 180.000000 -3.228255 85.394783 -1.668121 85.697381 -3.349050 177.802550 147.191642 -0.684805 -172.732943 -12.317567 1.034573 0.113157 73.503436 -4.913644 -15.720493 21.454560 0.003112 0.000021 177.172962 1.775302 176.562111 -41.479800 1.181547 -1.963544 101.038695 0.701243 -8.667000 21.454553 -0.003099 -0.000001 6.668346 -0.330837 0.451204 3.321292 -0.674220 0.892880 3.003203 -0.668958 0.896932 -10.627067 6.360210 -3.352947 -28.172997 2.990397 -2.806729 157.047988 -77.878862 21.915036 -34.704543 39.918381 -22.985888 -91.321535 -2.431057 2.575903 -3.032287 -8.518366 2.308216 -175.744032 83.970578 5.887934 -15.778251 -51.690783 -24.545244 -67.697673 17.796237 -2.592442 3.043908 7.533675 -7.057444 
86.084515 0.000000 556.337512 180.000000 -76.274668 180.000000 -2.788956 85.257973 -1.744520 87.211865 -4.402278 179.460838 147.276610 0.643610 -179.779964 -19.174621 2.255645 1.770746 68.474880 -4.025215 -7.732251 21.454560 0.003111 0.000018 -178.765626 5.111498 178.080558 -41.284078 1.524932 -4.205596 98.643491 2.000018 -8.777448 21.454557 -0.003082 -0.000001 6.706775 -0.558941 0.490461 3.396121 -1.131748 0.964585 3.078002 -1.126039 0.971402 -6.678586 6.599640 -3.330404 -28.867385 3.660560 -3.311217 168.655990 -78.740388 10.074950 -31.553442 43.025366 -15.462478 -84.503196 -5.695408 2.501090 -2.154937 -8.613159 3.339731 -171.594009 84.799558 10.082017 -14.931593 -54.259955 -29.792927 -57.680954 19.047178 -2.288590 5.046198 5.579483 -5.397847 
85.825809 0.000000 559.891281 180.000000 -72.699519 180.000000 -2.075962 84.670059 -2.028610 89.070542 -5.861224 -177.782334 147.042812 1.470503 177.216921 -29.351976 1.266085 2.022209 72.803280 -3.501956 -6.591342 21.454560 0.003101 0.000017 -176.643513 9.110196 -177.789496 -46.047523 1.227928 -7.531871 94.042846 3.780893 -9.574832 21.454553 -0.003091 0.000002 7.006213 -0.930573 0.387417 3.994038 -1.873768 0.742958 3.675790 -1.869375 0.754251 -4.731684 5.844609 -3.914485 -29.494580 5.558084 -5.211024 176.199975 -77.214940 2.438947 -29.037754 42.754727 -7.854296 -77.027779 -8.424339 2.366303 -0.708820 -8.445827 2.102274 -163.832087 83.403460 17.919997 -12.915063 -56.131686 -32.971710 -49.186026 19.513967 -2.025073 6.428790 4.534197 -4.645114 
85.470461 0.000000 563.249673 180.000000 -69.226177 180.000000 -1.713209 84.324913 -1.902185 89.230601 -5.453485 -174.180936 146.344986 1.079612 175.545875 -36.403901 1.657214 2.749498 77.172566 -3.679909 -6.306557 21.454558 0.003107 0.000016 -178.104177 11.057101 -172.882360 -53.477396 -0.429697 -11.200931 86.829770 6.756297 -4.603771 21.454548 -0.003104 0.000003 7.083253 -0.954182 0.166337 4.151763 -1.913583 0.298755 3.833477 -1.911889 0.310301 -5.109244 6.314564 -5.264461 -29.681813 7.265850 -7.315083 173.917967 -76.791468 4.780028 -25.622053 44.120331 -2.319129 -71.069409 -10.667394 2.271207 1.495555 -7.031031 2.712620 -160.530059 80.122709 21.298927 -9.637043 -57.347901 -34.117468 -42.252547 19.508373 -1.813896 8.599821 7.104930 -2.719585 
85.017788 0.000000 566.419820 180.000000 -65.843926 180.000000 -1.930711 84.828651 -1.850707 88.923624 -5.403750 -173.714856 147.673485 -0.175700 171.260573 -38.657085 2.776207 3.283158 80.117211 -3.817646 -5.956456 21.454560 0.003105 0.000015 177.086164 12.721699 -173.932365 -62.504830 -1.048704 -10.901866 82.401656 7.930589 1.488049 21.454551 -0.003093 0.000001 7.109160 -1.002073 0.244420 4.202161 -2.012203 0.452743 3.883854 -2.009568 0.464894 -5.458364 7.621797 -6.308337 -29.689934 7.424738 -8.085468 170.024036 -77.152021 8.740005 -20.629009 47.312451 2.918497 -65.515564 -12.440127 2.168763 1.523043 -6.461254 3.521763 -157.484983 79.364401 24.405041 -6.265592 -60.451846 -32.768498 -37.193474 17.398992 -1.542494 11.157424 11.535323 6.388255 
84.467110 0.000000 569.408855 180.000000 -62.541583 180.000000 -2.426307 85.881592 -1.835621 88.339298 -5.433784 -174.971404 150.260036 -1.408708 166.993303 -37.841960 3.656056 2.825624 81.630521 -3.503946 -6.277061 21.454558 0.003104 0.000016 170.625857 13.745109 -177.142486 -70.273883 -0.967497 -7.304910 82.147197 6.271154 4.924011 21.454550 -0.003088 0.000002 7.092024 -1.076214 0.120999 4.170010 -2.155983 0.203605 3.851673 -2.154856 0.216612 -5.875797 8.043904 -6.635535 -28.530069 8.121883 -8.511564 174.619018 -77.135778 4.053944 -15.330068 50.189910 8.524902 -60.769696 -13.740923 2.074338 2.021158 -5.206766 4.236063 -158.755016 80.422192 23.097043 -3.851988 -62.358917 -33.266177 -34.928508 14.121526 -1.276665 15.831996 10.193784 16.887621 
83.817743 0.000000 572.223909 180.000000 -59.307908 180.000000 -2.895359 87.213402 -1.778487 87.576601 -5.040774 -175.931875 153.276535 -2.299008 165.652592 -35.507107 3.131059 1.183967 82.234385 -2.421863 -6.806288 21.454558 0.003107 0.000017 164.148297 13.423802 -178.461860 -74.866953 -0.834851 -2.489930 83.694891 2.353017 2.720040 21.454553 -0.003091 -0.000002 7.006208 -1.055397 -0.184939 4.003977 -2.103769 -0.405944 3.685642 -2.106325 -0.393227 -6.024638 8.234403 -6.828752 -27.745180 9.421121 -9.191174 175.634995 -77.145955 3.016972 -9.259191 52.611315 14.894517 -56.348384 -14.497751 1.963258 2.800616 -5.412299 2.913221 -157.136001 80.501730 24.739046 -1.790714 -62.430627 -36.179164 -34.444026 12.002320 -1.128119 17.101880 5.059477 21.319961 
